<?xml version="1.0" encoding="utf-8"?>
<!-- Generator: Adobe Illustrator 16.0.0, SVG Export Plug-In . SVG Version: 6.00 Build 0)  -->
<!DOCTYPE svg PUBLIC "-//W3C//DTD SVG 1.1//EN" "http://www.w3.org/Graphics/SVG/1.1/DTD/svg11.dtd">
<svg version="1.1" id="图层_1" xmlns="http://www.w3.org/2000/svg" xmlns:xlink="http://www.w3.org/1999/xlink" x="0px" y="0px"
	 width="800px" height="800px" viewBox="-340 -370 800 800" enable-background="new -340 -370 800 800" xml:space="preserve">
<g transform="matrix(1.199534 0 0 1.199534 15.237208 6.249314)">
	<path fill="#0096D6" d="M-85.398,68.787h25.177v98.351h-25.177V68.787z M139.631,97.113c-0.788-0.795-8.654-5.509-21.248-5.509
		c-15.732,0-27.531,11.012-27.531,25.962s11.011,25.961,27.531,25.961c11.806,0,19.678-4.715,21.248-5.508v26.756
		c-3.145,0.788-11.806,3.145-22.816,3.145c-28.326,0-52.718-18.883-52.718-51.142c0-29.107,22.028-51.142,52.718-51.142
		c11.806,0,20.453,3.151,22.816,3.151V97.113z M-120.017,97.113c-0.788-0.795-8.657-5.509-21.244-5.509
		c-15.736,0-27.538,11.012-27.538,25.962s11.015,25.961,27.538,25.961c11.802,0,19.668-4.715,21.244-5.508v26.756
		c-3.148,0.788-11.802,3.145-22.817,3.145c-27.541,0-52.718-18.883-52.718-51.142c0-29.107,22.032-51.142,52.718-51.142
		c11.799,0,20.456,3.151,22.817,3.151V97.113z M269.454,118.354c0,28.326-22.029,51.142-51.924,51.142
		c-29.901,0-51.937-22.816-51.937-51.142s22.036-51.143,51.937-51.143C248.213,67.211,269.454,90.028,269.454,118.354z
		 M217.529,92.385c-14.95,0-25.968,11.806-25.968,25.969c0,14.162,11.017,25.968,25.968,25.968
		c14.951,0,25.962-11.806,25.962-25.968C243.491,104.191,232.48,92.385,217.529,92.385z M33.41,91.604
		c0,0-11.015-3.151-19.669-3.151c-10.229,0-15.739,3.151-15.739,7.866c0,6.297,7.082,7.873,11.018,9.442l7.081,2.363
		c15.735,5.509,23.605,16.52,23.605,28.326c0,24.386-22.032,33.047-40.916,33.047c-13.375,0-25.965-2.358-26.75-2.358v-22.816
		c2.361,0.782,12.587,3.933,23.602,3.933c12.59,0,18.099-3.933,18.099-9.442c0-4.727-4.721-7.872-11.017-9.441
		c-1.572-0.795-3.933-1.576-5.505-1.576c-14.163-4.721-25.177-12.594-25.177-29.113c0-18.096,14.16-30.69,36.98-30.69
		c11.802,0,23.605,3.151,24.389,3.151V91.604z"/>
	<g>
		<path id="A" fill="#0096D6" d="M-221.517-36.649c0.087-6.867-5.406-12.504-12.273-12.59c-0.106,0-0.212,0-0.317,0
			c-6.864-0.087-12.501,5.406-12.587,12.273c-0.003,0.106-0.003,0.212,0,0.317v25.965c-0.09,6.864,5.406,12.501,12.273,12.587
			c0.103,0.003,0.208,0.003,0.314,0c6.867,0.09,12.504-5.406,12.59-12.273c0-0.103,0-0.208,0-0.314V-36.649z"/>
	</g>
	<path fill="#0096D6" d="M-153.851-70.484c0.09-6.863-5.407-12.5-12.273-12.59c-0.103,0-0.208,0-0.314,0
		c-7.081,0-11.802,5.509-11.802,12.59v59.799c-0.09,6.864,5.406,12.501,12.27,12.587c0.105,0.003,0.211,0.003,0.317,0
		c6.867,0.09,12.504-5.406,12.59-12.273c0-0.103,0-0.208,0-0.314v-59.799H-153.851z M-85.398-116.905
		c0.086-6.867-5.407-12.5-12.273-12.59c-0.106,0-0.211,0-0.317,0c-6.863-0.087-12.5,5.406-12.587,12.273
		c-0.003,0.106-0.003,0.212,0,0.317v130.61c-0.09,6.867,5.407,12.497,12.27,12.587c0.106,0,0.211,0,0.317,0
		c6.867,0.09,12.504-5.403,12.59-12.27c0-0.105,0-0.211,0-0.317V-116.905z M-17.732-70.484c0.087-6.863-5.406-12.5-12.273-12.59
		c-0.105,0-0.208,0-0.314,0c-6.867-0.087-12.504,5.409-12.59,12.273c-0.003,0.106-0.003,0.212,0,0.317v59.799
		C-42.996-3.82-37.503,1.816-30.636,1.903c0.106,0.003,0.212,0.003,0.317,0c6.864,0.09,12.501-5.406,12.587-12.273
		c0.003-0.103,0.003-0.208,0-0.314V-70.484z"/>
	<g>
		<path id="A_1_" fill="#0096D6" d="M49.933-36.649c0.09-6.867-5.407-12.504-12.27-12.59c-0.106,0-0.212,0-0.317,0
			c-6.867-0.087-12.504,5.406-12.59,12.273c0,0.106,0,0.212,0,0.317v25.965C24.669-3.82,30.162,1.816,37.029,1.903
			c0.105,0.003,0.211,0.003,0.317,0c6.86,0.09,12.497-5.406,12.587-12.273c0-0.103,0-0.208,0-0.314V-36.649z"/>
	</g>
	<path fill="#0096D6" d="M117.602-70.484c0-6.953-5.637-12.59-12.593-12.59c-6.95,0-12.587,5.637-12.587,12.59v59.799
		c0,6.95,5.637,12.587,12.587,12.587c6.956,0,12.593-5.637,12.593-12.587V-70.484z M185.271-116.905
		c0-6.953-5.637-12.59-12.593-12.59c-6.957,0-12.594,5.637-12.594,12.59v130.61c0,6.954,5.637,12.587,12.594,12.587
		c6.956,0,12.593-5.634,12.593-12.587V-116.905z M252.934-70.484c0-6.953-5.637-12.59-12.587-12.59
		c-6.957,0-12.594,5.637-12.594,12.59v59.799c0,6.95,5.637,12.587,12.594,12.587c6.95,0,12.587-5.637,12.587-12.587V-70.484z
		 M320.596-36.649c0-6.953-5.637-12.59-12.587-12.59c-6.95,0-12.587,5.637-12.587,12.59v25.965c0,6.95,5.637,12.587,12.587,12.587
		c6.95,0,12.587-5.637,12.587-12.587V-36.649z"/>
</g>
</svg>
